<?xml version="1.0" encoding="UTF-8"?>
<svg id="_x3F_" xmlns="http://www.w3.org/2000/svg" version="1.1" viewBox="0 0 69.11 83.66">
  <!-- Generator: Adobe Illustrator 30.2.1, SVG Export Plug-In . SVG Version: 2.1.1 Build 1)  -->
  <defs>
    <style>
      .st0 {
        fill: #1e6496;
        opacity: .35;
      }
    </style>
  </defs>
  <path class="st0" d="M33.65,6.85c.04,2.63-1.8,4.91-4.35,5.54s-4.7,1.64-6.71,3.12c-.63.46-1.24.96-1.82,1.51-3.54,3.3-5.93,8.35-7.18,15.15-.13.74-.81,1.26-1.56,1.17l-10.78-1.28c-.78-.1-1.35-.82-1.24-1.61C1.39,21.13,4.96,13.94,10.69,8.88c2.31-2.03,4.89-3.81,7.77-5.23.45-.22.91-.44,1.37-.64.17-.08.84-.37,1.66-.68,1.84-.7,3.65-1.19,5.33-1.53,2.82-.58,5.72,1.07,6.51,3.85,0,.02.01.04.02.06.2.72.3,1.44.31,2.14Z"/>
  <path class="st0" d="M69.11,30.19c0,4.69-1.1,9.01-3.3,12.97-2.2,3.95-6.5,8.76-12.89,14.43-4.3,3.8-7.11,6.61-8.42,8.42-1.32,1.81-2.3,3.88-2.93,6.22-.58,2.14-.94,5.49-1.07,10.06-.02.76-.65,1.37-1.42,1.37h-9.9c-.77,0-1.4-.62-1.42-1.39-.02-1.08-.04-1.94-.04-2.57,0-5.17.74-9.64,2.2-13.4,1.07-2.83,2.81-5.69,5.2-8.57,1.76-2.1,4.92-5.16,9.49-9.19,4.56-4.03,7.53-7.24,8.9-9.63,1.36-2.39,2.05-5.01,2.05-7.84,0-1.88-.27-3.67-.81-5.38-.16-.51-.34-1-.55-1.49h14.29c.11.49.2.99.28,1.49.23,1.46.34,2.96.34,4.5Z"/>
</svg>