<svg width="108" height="98" viewBox="0 0 108 98" fill="none" xmlns="http://www.w3.org/2000/svg">
<path d="M89.1951 54.4219V16.8814C89.1951 14.1855 87.0096 12.0002 84.3139 12.0002H19.8813C17.1855 12.0002 15 14.1855 15 16.8814V81.3141C15 84.0098 17.1855 86.1953 19.8813 86.1953H57.4217" stroke="#302F3A" stroke-miterlimit="10" stroke-linecap="round" stroke-linejoin="round"/>
<path d="M52.0976 49.0977H15" stroke="#302F3A" stroke-miterlimit="10" stroke-linecap="round" stroke-linejoin="round"/>
<path fill-rule="evenodd" clip-rule="evenodd" d="M15 17C15 14.2386 17.2386 12 20 12H52.0976V49.0976H15V17ZM28.7695 31.0244C28.7695 30.7483 28.9934 30.5244 29.2695 30.5244H33.5256V26.2683C33.5256 25.9922 33.7495 25.7683 34.0256 25.7683C34.3018 25.7683 34.5256 25.9922 34.5256 26.2683V30.5244H38.7817C39.0579 30.5244 39.2817 30.7483 39.2817 31.0244C39.2817 31.3006 39.0579 31.5244 38.7817 31.5244H34.5256V35.7805C34.5256 36.0566 34.3018 36.2805 34.0256 36.2805C33.7495 36.2805 33.5256 36.0566 33.5256 35.7805V31.5244H29.2695C28.9934 31.5244 28.7695 31.3006 28.7695 31.0244Z" fill="url(#paint0_linear_71_84)"/>
<path d="M30.6621 63.8081L37.3882 70.5342" stroke="#302F3A" stroke-miterlimit="10" stroke-linecap="round" stroke-linejoin="round"/>
<path d="M30.6621 70.5342L37.3882 63.808" stroke="#302F3A" stroke-miterlimit="10" stroke-linecap="round" stroke-linejoin="round"/>
<path fill-rule="evenodd" clip-rule="evenodd" d="M84.1951 12C86.9565 12 89.1951 14.2386 89.1951 17L89.1951 54.5464C85.1051 48.3954 78.1115 44.3415 70.1711 44.3415C62.8157 44.3415 56.2727 47.82 52.0976 53.2217L52.0976 12H84.1951ZM66.8184 31.0244C66.8184 30.7483 67.0422 30.5244 67.3184 30.5244H76.8306C77.1067 30.5244 77.3306 30.7483 77.3306 31.0244C77.3306 31.3006 77.1067 31.5244 76.8306 31.5244H67.3184C67.0422 31.5244 66.8184 31.3006 66.8184 31.0244Z" fill="url(#paint1_linear_71_84)"/>
<path d="M64.4629 70.9756H75.8775" stroke="#AAECD8" stroke-miterlimit="10" stroke-linecap="round" stroke-linejoin="round"/>
<path d="M52.0977 53.8535V11.9999" stroke="#302F3A" stroke-miterlimit="10" stroke-linecap="round" stroke-linejoin="round"/>
<path d="M93.0003 67.1707C93.0003 79.779 82.7793 90 70.1711 90C57.5628 90 47.3418 79.779 47.3418 67.1707C47.3418 54.5625 57.5628 44.3415 70.1711 44.3415C82.7793 44.3415 93.0003 54.5625 93.0003 67.1707Z" fill="url(#paint2_linear_71_84)" fill-opacity="0.5" stroke="#AAECD8" stroke-miterlimit="10" stroke-linecap="round" stroke-linejoin="round"/>
<path d="M64.4629 63.3657H75.8775" stroke="#AAECD8" stroke-miterlimit="10" stroke-linecap="round" stroke-linejoin="round"/>
<defs>
<linearGradient id="paint0_linear_71_84" x1="15" y1="12" x2="58.6282" y2="38.2387" gradientUnits="userSpaceOnUse">
<stop stop-color="#30303A"/>
<stop offset="1" stop-color="#30303A" stop-opacity="0"/>
</linearGradient>
<linearGradient id="paint1_linear_71_84" x1="52.0977" y1="12" x2="98.6931" y2="36.4343" gradientUnits="userSpaceOnUse">
<stop stop-color="#30303A"/>
<stop offset="1" stop-color="#30303A" stop-opacity="0"/>
</linearGradient>
<linearGradient id="paint2_linear_71_84" x1="70.1711" y1="87.7171" x2="70.1711" y2="44.3415" gradientUnits="userSpaceOnUse">
<stop stop-color="#AAECD8"/>
<stop offset="1" stop-color="#AAECD8" stop-opacity="0"/>
</linearGradient>
</defs>
</svg>
