<svg width="108" height="98" viewBox="0 0 108 98" fill="none" xmlns="http://www.w3.org/2000/svg">
<rect x="13" y="59" width="83" height="30" rx="2" fill="url(#paint0_linear_72_163)"/>
<rect x="13" y="59" width="83" height="30" rx="2" stroke="#302F3A"/>
<path d="M48 54C48 53.4477 48.4477 53 49 53H61C61.5523 53 62 53.4477 62 54V59H48V54Z" stroke="#302F3A"/>
<path d="M24 54C24 53.4477 24.4477 53 25 53H37C37.5523 53 38 53.4477 38 54V59H24V54Z" stroke="#302F3A"/>
<path d="M72 54C72 53.4477 72.4477 53 73 53H85C85.5523 53 86 53.4477 86 54V59H72V54Z" stroke="#302F3A"/>
<rect x="30" y="15" width="48" height="26" rx="2" fill="url(#paint1_linear_72_163)" fill-opacity="0.5"/>
<rect x="30" y="15" width="48" height="26" rx="2" stroke="#AAECD8"/>
<path d="M37 10C37 9.44772 37.4477 9 38 9H48C48.5523 9 49 9.44772 49 10V15H37V10Z" stroke="#AAECD8"/>
<path d="M59 10C59 9.44772 59.4477 9 60 9H70C70.5523 9 71 9.44772 71 10V15H59V10Z" stroke="#AAECD8"/>
<defs>
<linearGradient id="paint0_linear_72_163" x1="13" y1="59" x2="48.2695" y2="117.686" gradientUnits="userSpaceOnUse">
<stop stop-color="#30303A"/>
<stop offset="1" stop-color="#30303A" stop-opacity="0"/>
</linearGradient>
<linearGradient id="paint1_linear_72_163" x1="54" y1="16.3" x2="54" y2="41" gradientUnits="userSpaceOnUse">
<stop stop-color="#AAECD8"/>
<stop offset="1" stop-color="#AAECD8" stop-opacity="0"/>
</linearGradient>
</defs>
</svg>
