<?xml version="1.0" encoding="UTF-8"?>
<svg id="Layer_1" xmlns="http://www.w3.org/2000/svg" version="1.1" viewBox="0 0 198 45">
  <!-- Generator: Adobe Illustrator 30.0.0, SVG Export Plug-In . SVG Version: 2.1.1 Build 123)  -->
  <defs>
    <style>
      .st0 {
        fill: #1c6695;
      }

      .st1 {
        fill: #f7f7f7;
      }

      .st2 {
        fill: #0a8a65;
      }
    </style>
  </defs>
  <path class="st2" d="M34.3,19.69l6.26,5.85-2.99,2.85c-.02.1-.01.09.04.14,1.46,1.36,2.83,2.43,4.83,2.88,8.79,1.99,14.92-8.17,9.04-15.01-2.85-3.32-7.95-4.07-11.68-1.76-.42.26-1.46,1.22-1.78,1.28-.17.03-.37.01-.54-.01-1.92-1.68-3.78-3.45-5.62-5.24-.14-.13-.38-.17-.35-.41.96-.85,1.88-1.76,2.93-2.5,5.91-4.18,14.29-4.19,20.23-.07,8.94,6.19,10.55,18.83,3.1,26.89s-19.37,7.67-26.58-.14l-6.19-5.92c-.13-.24.06-.19.18-.31.96-.92,1.92-1.84,2.89-2.75.08-.07.09-.2.1-.21.45-.33,1.01-.78,1.44-1.14.08-.07.42-.5.46-.51.09-.04.24,0,.26-.02s-.02-.17.02-.26c.02-.05.78-.81.83-.83.09-.04.24,0,.26-.02.03-.03-.02-.25,0-.28s.26.03.28,0-.03-.26,0-.28.26.03.28,0-.03-.26,0-.28.26.03.28,0-.03-.25,0-.28c.01-.01.17.02.26-.02.12-.05,1.34-1.4,1.57-1.63.05-.05.17-.01.18-.02Z"/>
  <path class="st0" d="M28.18,25.26l-6.18-5.82.06-.2,2.86-2.71c-1.09-1.07-2.22-2.03-3.67-2.59-5.47-2.11-11.72,1.42-12.46,7.26-1.06,8.26,8.01,13.5,14.73,8.54.85-.63.97-1.14,2.03-.27,1.81,1.5,3.45,3.51,5.29,5.01l.13.2c-1.64,1.69-3.52,3.16-5.68,4.14C14.61,43.66,1.97,36.91.22,25.35-2.23,9.14,16.04-1.48,28.91,8.43c2.95,2.63,5.76,5.42,8.66,8.1-1.04,1-2.12,1.96-3.17,2.96-.09.08-.09.2-.1.21-.02.01-.13-.03-.18.02-.23.22-1.46,1.57-1.57,1.63-.09.04-.24,0-.26.02-.03.03.02.25,0,.28s-.26-.03-.28,0,.03.26,0,.28-.26-.03-.28,0,.03.26,0,.28-.26-.03-.28,0,.03.25,0,.28c-.01.01-.17-.02-.26.02-.05.02-.81.78-.83.83-.04.09,0,.24-.02.26s-.17-.02-.26.02c-.04.02-.37.44-.46.51-.43.35-.99.81-1.44,1.14Z"/>
  <g>
    <path class="st1" d="M94.36,29.15c-4.87-4.81-3.64-13.25,2.38-16.5,8.31-4.48,17.81,3.43,14.86,12.42-2.4,7.31-11.77,9.48-17.24,4.07ZM96.97,16.39c-7.24,6.49,2.61,17.13,9.66,10.73,6.95-6.31-2.6-17.07-9.66-10.73Z"/>
    <path class="st1" d="M149.75,11.29v20.77l-14.04-13.61v13.25s-.33.36-.36.36h-2.79V11.43l14.04,13.61v-13.25c0-.11.67-.5.79-.5h2.36Z"/>
    <path class="st1" d="M130.98,11.43v20.49l-14.33-13.75v13.54c0,.07-.29.27-.39.33-.42.21-2.48.36-2.61-.06V11.58s.5.14.5.14l13.39,13.26.43.21v-13.25c0-.83,2.49-.71,3.01-.5Z"/>
    <path class="st1" d="M86.37,14.08c1.24,1.12,2.43,2.87,2.78,4.52-.97,0-2.06.85-2.97.33-.4-.23-.89-1.33-1.26-1.76-3.21-3.85-9.42-3.31-11.84,1.05-4.2,7.54,6.07,15.14,12.12,7.82.66-.8.62-1.71,2-1.55.18.02,1.73.44,1.81.49.31.22-.16,1.11-.3,1.42-4.07,8.55-17.02,7.28-19.4-1.92-2.59-10.04,9.39-17.31,17.06-10.4Z"/>
    <path class="st1" d="M168.99,26.86c2.99,3.05,8.08,2.77,10.77-.52.71-.87.75-1.95,2.13-1.85.24.02,2.09.54,2.1.65-3.08,9.19-16.28,9.44-19.59.24-4.1-11.39,11.29-19.4,18.27-9.54.33.47,1.25,1.94,1.3,2.44.03.35-.81.49-1.1.58-2.5.76-2.07-.54-3.4-1.97-6.59-7.1-17.23,3.09-10.48,9.98Z"/>
    <path class="st1" d="M162.21,11.43v2.08c0,.15-.35.5-.5.5h-7.02s-.21.2-.21.21v5.44c0,.21.42.79.64.79h7.09v2.08s-.22.39-.29.43c-.68.41-5.62-.19-6.77.1-.37,0-.68.62-.68.9v5.01s.2.21.21.21h7.23s.29.47.29.5v2.36h-10.74V11.43h10.74Z"/>
    <path class="st1" d="M197.6,14.01h-4.94s-.21.2-.21.21v17.19c0,.07-.69.64-.79.64h-2.36V14.01h-4.23c-.23,0-.7-.55-.76-.82-.05-.23-.15-1.34-.15-1.58,0-.14.1-.32.19-.32h11.32c.07,0,1,.15,1.12.17,1,.24.83,1.76.82,2.55Z"/>
  </g>
</svg>