<?xml version="1.0" encoding="UTF-8"?>
<svg id="Layer_1" xmlns="http://www.w3.org/2000/svg" version="1.1" viewBox="0 0 198 44">
  <!-- Generator: Adobe Illustrator 30.0.0, SVG Export Plug-In . SVG Version: 2.1.1 Build 123)  -->
  <defs>
    <style>
      .st0 {
        fill: #1c6695;
      }

      .st1 {
        fill: #0a8a65;
      }

      .st2 {
        fill: #707074;
      }
    </style>
  </defs>
  <path class="st1" d="M34.38,19.18l6.28,5.86-3,2.86c-.02.1-.01.09.04.14,1.46,1.36,2.84,2.43,4.83,2.89,8.81,2,14.94-8.19,9.06-15.04-2.86-3.33-7.97-4.07-11.7-1.76-.43.26-1.46,1.22-1.79,1.28-.17.02-.37.01-.53-.01-1.92-1.68-3.79-3.46-5.63-5.25-.13-.13-.37-.17-.35-.41.96-.85,1.88-1.76,2.94-2.51,5.93-4.18,14.32-4.19,20.28-.07,8.96,6.2,10.58,18.87,3.11,26.94-7.28,7.87-19.42,7.68-26.63-.14l-6.2-5.93c-.13-.24.05-.2.17-.31.96-.93,1.92-1.84,2.89-2.76.08-.08.09-.21.1-.21.45-.33,1.02-.79,1.44-1.14.09-.07.41-.49.46-.51.09-.04.24,0,.26-.02s-.01-.17.02-.26c.02-.05.79-.81.84-.84.09-.04.24,0,.26-.02.03-.02-.02-.25,0-.28s.25.02.28,0-.02-.25,0-.28.25.02.28,0-.02-.25,0-.28.26.02.28,0-.03-.25,0-.28c.01-.01.17.02.26-.02.12-.05,1.34-1.41,1.58-1.63.05-.05.16-.01.19-.02l-.03.02Z"/>
  <path class="st0" d="M28.23,24.76l-6.2-5.84.05-.2,2.86-2.72c-1.09-1.08-2.23-2.04-3.68-2.6-5.49-2.12-11.74,1.42-12.49,7.28-1.06,8.28,8.02,13.52,14.77,8.56.85-.62.97-1.15,2.03-.27,1.81,1.5,3.46,3.51,5.3,5.02l.13.21c-1.64,1.69-3.53,3.17-5.69,4.15C14.64,43.21,1.98,36.44.23,24.86-2.24,8.61,16.08-2.02,28.97,7.9c2.96,2.64,5.77,5.44,8.68,8.12-1.05,1-2.12,1.96-3.18,2.96-.09.08-.09.21-.1.21-.02.01-.13-.02-.19.02-.24.22-1.46,1.57-1.58,1.63-.09.04-.24,0-.26.02-.03.02.02.25,0,.28s-.25-.02-.28,0,.02.25,0,.28-.25-.02-.28,0,.02.25,0,.28-.26-.02-.28,0,.03.25,0,.28c-.01.01-.17-.02-.26.02-.05.02-.81.79-.84.84-.04.09,0,.24-.02.26s-.17-.01-.26.02c-.04.02-.37.45-.46.51-.43.35-.99.81-1.44,1.14l.03-.02Z"/>
  <g>
    <path class="st2" d="M94.55,28.66c-4.88-4.81-3.65-13.28,2.39-16.53,8.33-4.49,17.84,3.44,14.89,12.45-2.41,7.32-11.8,9.5-17.28,4.08ZM97.17,15.88c-7.25,6.5,2.61,17.17,9.68,10.75,6.96-6.32-2.6-17.1-9.68-10.75Z"/>
    <path class="st2" d="M150.06,10.77v20.81l-14.07-13.63v13.28s-.34.36-.36.36h-2.79V10.91l14.07,13.63v-13.28c0-.11.68-.5.79-.5h2.37Z"/>
    <path class="st2" d="M131.25,10.91v20.53l-14.35-13.78v13.57c0,.07-.28.27-.39.33-.43.22-2.48.36-2.61-.05V11.05l.5.13,13.41,13.28.44.22v-13.28c0-.83,2.5-.71,3.01-.5h-.01Z"/>
    <path class="st2" d="M86.55,13.56c1.24,1.12,2.43,2.87,2.78,4.53-.97,0-2.06.85-2.98.33-.4-.23-.89-1.33-1.26-1.77-3.22-3.85-9.43-3.32-11.86,1.06-4.2,7.56,6.09,15.17,12.14,7.84.65-.8.62-1.71,2.01-1.56.17.02,1.74.44,1.81.49.31.22-.15,1.11-.31,1.42-4.07,8.57-17.06,7.3-19.44-1.92-2.6-10.06,9.41-17.34,17.09-10.41h.01Z"/>
    <path class="st2" d="M169.34,26.37c2.99,3.06,8.09,2.78,10.79-.52.71-.87.75-1.95,2.13-1.86.24.01,2.1.53,2.11.64-3.09,9.2-16.32,9.46-19.63.24-4.11-11.42,11.31-19.44,18.31-9.55.33.47,1.26,1.94,1.3,2.44.03.35-.81.49-1.1.58-2.51.76-2.07-.53-3.41-1.98-6.6-7.12-17.27,3.1-10.5,10Z"/>
    <path class="st2" d="M162.54,10.91v2.08c0,.15-.35.5-.5.5h-7.03s-.22.2-.22.22v5.46c0,.21.43.79.64.79h7.11v2.08s-.22.39-.28.43c-.68.41-5.63-.19-6.79.11-.37,0-.68.62-.68.91v5.02s.2.22.22.22h7.25s.28.47.28.5v2.37h-10.76V10.91h10.76Z"/>
    <path class="st2" d="M197.99,13.5h-4.96s-.22.2-.22.22v17.22c0,.07-.69.64-.79.64h-2.37V13.5h-4.23c-.23,0-.7-.56-.76-.82-.05-.23-.15-1.34-.14-1.58,0-.13.1-.33.19-.33h11.34c.07,0,1,.14,1.11.17,1,.24.83,1.77.82,2.55h.01Z"/>
  </g>
</svg>