<?xml version="1.0" encoding="UTF-8"?>
<svg id="Layer_1" xmlns="http://www.w3.org/2000/svg" version="1.1" viewBox="0 0 400 69.87">
  <!-- Generator: Adobe Illustrator 30.0.0, SVG Export Plug-In . SVG Version: 2.1.1 Build 123)  -->
  <path d="M16.28,57.22c-2.76,0-5.23-.63-7.43-1.89-2.2-1.26-3.95-2.98-5.24-5.17-1.29-2.18-1.94-4.64-1.94-7.36s.64-5.17,1.92-7.33c1.28-2.17,3.02-3.87,5.24-5.12,2.22-1.24,4.7-1.87,7.46-1.87,2.05,0,3.95.35,5.69,1.06,1.75.71,3.24,1.69,4.49,2.95,1.24,1.26,2.13,2.75,2.67,4.46l-6.55,2.82c-.47-1.38-1.27-2.47-2.39-3.28-1.13-.81-2.43-1.21-3.91-1.21-1.31,0-2.48.32-3.5.96-1.03.64-1.83,1.53-2.42,2.67-.59,1.14-.88,2.45-.88,3.93s.29,2.79.88,3.93,1.39,2.03,2.42,2.67c1.02.64,2.19.96,3.5.96,1.51,0,2.82-.4,3.93-1.21,1.11-.81,1.9-1.9,2.37-3.28l6.55,2.87c-.5,1.61-1.38,3.06-2.62,4.33-1.24,1.28-2.74,2.28-4.49,3-1.75.72-3.66,1.08-5.75,1.08Z"/>
  <path d="M47.22,57.22c-2.72,0-5.2-.62-7.43-1.86-2.23-1.24-4.02-2.95-5.34-5.12-1.33-2.17-1.99-4.63-1.99-7.38s.66-5.26,1.99-7.41c1.33-2.15,3.11-3.85,5.34-5.09,2.23-1.24,4.71-1.87,7.43-1.87s5.19.62,7.41,1.87,3.99,2.94,5.32,5.09c1.33,2.15,1.99,4.62,1.99,7.41s-.66,5.22-1.99,7.38c-1.33,2.17-3.1,3.87-5.32,5.12s-4.69,1.86-7.41,1.86ZM47.22,50.41c1.38,0,2.58-.32,3.6-.96,1.02-.64,1.83-1.53,2.42-2.67.59-1.14.88-2.45.88-3.93s-.29-2.78-.88-3.91c-.59-1.12-1.39-2.02-2.42-2.67s-2.23-.98-3.6-.98-2.59.33-3.63.98c-1.04.66-1.86,1.55-2.44,2.67-.59,1.13-.88,2.43-.88,3.91s.29,2.79.88,3.93,1.4,2.03,2.44,2.67c1.04.64,2.25.96,3.63.96Z"/>
  <path d="M66.37,56.61v-27.52h7.06v5.44l-.4-1.21c.64-1.65,1.67-2.86,3.1-3.65,1.43-.79,3.1-1.18,5.01-1.18,2.08,0,3.91.44,5.47,1.31,1.56.87,2.78,2.09,3.65,3.65.87,1.56,1.31,3.38,1.31,5.47v17.69h-7.56v-16.08c0-1.07-.21-2-.63-2.77-.42-.77-1.01-1.38-1.76-1.81-.76-.44-1.64-.66-2.65-.66s-1.85.22-2.62.66c-.77.44-1.37,1.04-1.79,1.81-.42.77-.63,1.7-.63,2.77v16.08h-7.56Z"/>
  <path d="M96.56,56.61v-27.52h7.06v5.44l-.4-1.21c.64-1.65,1.67-2.86,3.1-3.65,1.43-.79,3.1-1.18,5.01-1.18,2.08,0,3.91.44,5.47,1.31,1.56.87,2.78,2.09,3.65,3.65.87,1.56,1.31,3.38,1.31,5.47v17.69h-7.56v-16.08c0-1.07-.21-2-.63-2.77-.42-.77-1.01-1.38-1.76-1.81-.76-.44-1.64-.66-2.65-.66s-1.85.22-2.62.66c-.77.44-1.37,1.04-1.79,1.81-.42.77-.63,1.7-.63,2.77v16.08h-7.56Z"/>
  <path d="M140,57.22c-2.92,0-5.46-.65-7.61-1.94-2.15-1.29-3.81-3.03-4.99-5.22-1.18-2.18-1.76-4.6-1.76-7.26s.61-5.21,1.84-7.36c1.23-2.15,2.88-3.85,4.96-5.09,2.08-1.24,4.44-1.87,7.06-1.87,2.18,0,4.12.35,5.8,1.03,1.68.69,3.1,1.66,4.26,2.9s2.04,2.68,2.65,4.31c.6,1.63.91,3.4.91,5.32,0,.54-.03,1.07-.08,1.59-.05.52-.14.97-.28,1.34h-20.61v-5.54h16.33l-3.58,2.62c.34-1.44.32-2.73-.05-3.86s-1.02-2.02-1.94-2.67c-.92-.66-2.06-.98-3.4-.98s-2.44.32-3.38.96c-.94.64-1.65,1.58-2.12,2.82-.47,1.24-.66,2.75-.55,4.54-.13,1.55.05,2.91.55,4.08.5,1.18,1.28,2.09,2.32,2.75,1.04.66,2.3.98,3.78.98,1.34,0,2.49-.27,3.45-.81.96-.54,1.7-1.28,2.24-2.22l6.05,2.87c-.54,1.34-1.39,2.52-2.54,3.53s-2.53,1.79-4.11,2.34c-1.58.55-3.31.83-5.19.83Z"/>
  <path d="M171.05,57.22c-2.76,0-5.23-.63-7.43-1.89-2.2-1.26-3.95-2.98-5.24-5.17-1.29-2.18-1.94-4.64-1.94-7.36s.64-5.17,1.92-7.33c1.28-2.17,3.02-3.87,5.24-5.12,2.22-1.24,4.7-1.87,7.46-1.87,2.05,0,3.95.35,5.69,1.06,1.75.71,3.24,1.69,4.49,2.95,1.24,1.26,2.13,2.75,2.67,4.46l-6.55,2.82c-.47-1.38-1.27-2.47-2.39-3.28-1.13-.81-2.43-1.21-3.91-1.21-1.31,0-2.48.32-3.5.96-1.03.64-1.83,1.53-2.42,2.67-.59,1.14-.88,2.45-.88,3.93s.29,2.79.88,3.93,1.39,2.03,2.42,2.67c1.02.64,2.19.96,3.5.96,1.51,0,2.82-.4,3.93-1.21,1.11-.81,1.9-1.9,2.37-3.28l6.55,2.87c-.5,1.61-1.38,3.06-2.62,4.33-1.24,1.28-2.74,2.28-4.49,3-1.75.72-3.66,1.08-5.75,1.08Z"/>
  <path d="M201.59,56.91c-3.33,0-5.91-.9-7.74-2.7-1.83-1.8-2.75-4.31-2.75-7.54v-11.04h-4.64v-6.55h.25c1.41,0,2.49-.35,3.25-1.06.76-.71,1.13-1.76,1.13-3.17v-2.02h7.56v6.25h6.45v6.55h-6.45v10.53c0,.94.17,1.72.5,2.34.34.62.86,1.08,1.56,1.39.71.3,1.58.45,2.62.45.24,0,.5-.02.81-.05.3-.03.62-.07.96-.1v6.4c-.5.07-1.08.13-1.71.2-.64.07-1.24.1-1.81.1Z"/>
  <path d="M227.14,57.22c-1.98,0-3.7-.32-5.14-.96-1.45-.64-2.55-1.55-3.33-2.75-.77-1.19-1.16-2.61-1.16-4.26,0-1.54.35-2.91,1.06-4.11.71-1.19,1.79-2.19,3.25-3,1.46-.81,3.28-1.38,5.47-1.71l8.42-1.36v5.54l-7.06,1.26c-1.08.2-1.9.55-2.47,1.03s-.86,1.18-.86,2.09c0,.84.32,1.5.96,1.97.64.47,1.43.71,2.37.71,1.24,0,2.33-.27,3.28-.81.94-.54,1.67-1.27,2.19-2.19.52-.92.78-1.94.78-3.05v-7.16c0-1.04-.41-1.92-1.23-2.62-.82-.71-1.94-1.06-3.35-1.06s-2.53.37-3.55,1.11c-1.03.74-1.77,1.71-2.24,2.92l-6.05-2.87c.54-1.54,1.39-2.87,2.57-3.98,1.17-1.11,2.59-1.96,4.23-2.57,1.65-.6,3.44-.91,5.39-.91,2.32,0,4.37.42,6.15,1.26s3.17,2.01,4.16,3.5c.99,1.5,1.49,3.23,1.49,5.22v18.14h-7.06v-4.43l1.71-.3c-.81,1.21-1.7,2.21-2.67,3-.97.79-2.07,1.38-3.28,1.76-1.21.39-2.55.58-4.03.58Z"/>
  <path d="M261.51,67.7c-2.12,0-4.08-.35-5.9-1.06-1.81-.71-3.37-1.69-4.66-2.95s-2.23-2.75-2.8-4.46l7.01-2.47c.37,1.28,1.12,2.28,2.27,3.02,1.14.74,2.5,1.11,4.08,1.11,1.24,0,2.32-.23,3.23-.68.91-.45,1.6-1.12,2.09-1.99.49-.87.73-1.9.73-3.07v-6.3l1.46,1.81c-.94,1.55-2.15,2.7-3.63,3.45-1.48.76-3.21,1.13-5.19,1.13-2.55,0-4.84-.58-6.85-1.74-2.02-1.16-3.6-2.75-4.74-4.79-1.14-2.03-1.71-4.34-1.71-6.93s.57-4.88,1.71-6.88c1.14-2,2.7-3.57,4.69-4.71,1.98-1.14,4.23-1.71,6.75-1.71,1.98,0,3.71.4,5.19,1.18,1.48.79,2.74,1.99,3.78,3.6l-.96,1.81v-6h7.06v26.05c0,2.42-.59,4.58-1.76,6.48-1.18,1.9-2.78,3.38-4.81,4.46-2.03,1.08-4.38,1.61-7.03,1.61ZM261.26,48.4c1.28,0,2.38-.27,3.33-.81.94-.54,1.67-1.29,2.19-2.27.52-.97.78-2.12.78-3.43s-.27-2.46-.81-3.45c-.54-.99-1.28-1.76-2.22-2.32-.94-.55-2.03-.83-3.28-.83s-2.41.28-3.4.83c-.99.55-1.76,1.33-2.32,2.32-.55.99-.83,2.14-.83,3.45s.28,2.4.83,3.38c.55.98,1.33,1.74,2.32,2.29.99.55,2.12.83,3.4.83Z"/>
  <path d="M293.91,57.22c-2.92,0-5.46-.65-7.61-1.94-2.15-1.29-3.81-3.03-4.99-5.22-1.18-2.18-1.76-4.6-1.76-7.26s.61-5.21,1.84-7.36c1.23-2.15,2.88-3.85,4.96-5.09,2.08-1.24,4.43-1.87,7.06-1.87,2.18,0,4.12.35,5.8,1.03,1.68.69,3.1,1.66,4.26,2.9,1.16,1.24,2.04,2.68,2.65,4.31.6,1.63.91,3.4.91,5.32,0,.54-.03,1.07-.08,1.59-.05.52-.14.97-.28,1.34h-20.61v-5.54h16.33l-3.58,2.62c.33-1.44.32-2.73-.05-3.86-.37-1.13-1.02-2.02-1.94-2.67-.92-.66-2.06-.98-3.4-.98s-2.44.32-3.38.96c-.94.64-1.65,1.58-2.12,2.82-.47,1.24-.66,2.75-.55,4.54-.13,1.55.05,2.91.55,4.08.5,1.18,1.28,2.09,2.32,2.75,1.04.66,2.3.98,3.78.98,1.34,0,2.5-.27,3.45-.81.96-.54,1.71-1.28,2.24-2.22l6.05,2.87c-.54,1.34-1.39,2.52-2.55,3.53s-2.53,1.79-4.11,2.34c-1.58.55-3.31.83-5.19.83Z"/>
  <path d="M311.45,56.61v-27.52h7.06v5.44l-.4-1.21c.64-1.65,1.67-2.86,3.1-3.65,1.43-.79,3.1-1.18,5.01-1.18,2.08,0,3.91.44,5.47,1.31,1.56.87,2.78,2.09,3.65,3.65.87,1.56,1.31,3.38,1.31,5.47v17.69h-7.56v-16.08c0-1.07-.21-2-.63-2.77-.42-.77-1.01-1.38-1.76-1.81-.76-.44-1.64-.66-2.65-.66s-1.85.22-2.62.66c-.77.44-1.37,1.04-1.79,1.81-.42.77-.63,1.7-.63,2.77v16.08h-7.56Z"/>
  <path d="M355.15,57.22c-2.75,0-5.23-.63-7.43-1.89-2.2-1.26-3.95-2.98-5.24-5.17-1.29-2.18-1.94-4.64-1.94-7.36s.64-5.17,1.92-7.33c1.28-2.17,3.02-3.87,5.24-5.12s4.7-1.87,7.46-1.87c2.05,0,3.95.35,5.7,1.06,1.75.71,3.24,1.69,4.49,2.95,1.24,1.26,2.13,2.75,2.67,4.46l-6.55,2.82c-.47-1.38-1.27-2.47-2.39-3.28-1.13-.81-2.43-1.21-3.91-1.21-1.31,0-2.48.32-3.5.96-1.03.64-1.83,1.53-2.42,2.67-.59,1.14-.88,2.45-.88,3.93s.29,2.79.88,3.93,1.39,2.03,2.42,2.67c1.02.64,2.19.96,3.5.96,1.51,0,2.82-.4,3.93-1.21,1.11-.81,1.9-1.9,2.37-3.28l6.55,2.87c-.5,1.61-1.38,3.06-2.62,4.33-1.24,1.28-2.74,2.28-4.49,3-1.75.72-3.66,1.08-5.75,1.08Z"/>
  <path d="M376.71,67.7c-.81,0-1.59-.07-2.34-.2-.76-.13-1.42-.35-1.99-.66v-6.2c.47.13,1.02.25,1.66.35.64.1,1.23.15,1.76.15,1.48,0,2.54-.35,3.17-1.03.64-.69,1.16-1.47,1.56-2.34l1.87-4.28-.1,6.3-12.09-30.69h8.11l8.01,21.82h-3.02l8.01-21.82h8.11l-11.79,30.09c-.74,1.88-1.65,3.46-2.72,4.74-1.08,1.28-2.29,2.23-3.65,2.85-1.36.62-2.88.93-4.56.93Z"/>
</svg>